<svg width="182" height="56" viewBox="0 0 182 56" fill="none" xmlns="http://www.w3.org/2000/svg">
<rect x="18" y="11" width="35" height="35" rx="10" fill="#AF9A2D"/>
<path d="M24.25 19.0096C23.9185 19.0096 23.6005 19.1384 23.3661 19.3675C23.1317 19.5966 23 19.9073 23 20.2313V26.9506C23 29.0153 24.2875 30.7745 26.125 31.4953V39.1675C26.125 39.6535 26.3225 40.1196 26.6742 40.4633C27.0258 40.8069 27.5027 41 28 41C28.4973 41 28.9742 40.8069 29.3258 40.4633C29.6775 40.1196 29.875 39.6535 29.875 39.1675V31.4953C31.7125 30.7745 33 29.0153 33 26.9506V20.2313C33 19.9073 32.8683 19.5966 32.6339 19.3675C32.3995 19.1384 32.0815 19.0096 31.75 19.0096C31.4185 19.0096 31.1005 19.1384 30.8661 19.3675C30.6317 19.5966 30.5 19.9073 30.5 20.2313V25.1181C30.5 25.2801 30.4342 25.4355 30.3169 25.55C30.1997 25.6646 30.0408 25.7289 29.875 25.7289C29.7092 25.7289 29.5503 25.6646 29.4331 25.55C29.3158 25.4355 29.25 25.2801 29.25 25.1181V20.2313C29.25 19.9073 29.1183 19.5966 28.8839 19.3675C28.6495 19.1384 28.3315 19.0096 28 19.0096C27.6685 19.0096 27.3505 19.1384 27.1161 19.3675C26.8817 19.5966 26.75 19.9073 26.75 20.2313V25.1181C26.75 25.2801 26.6842 25.4355 26.5669 25.55C26.4497 25.6646 26.2908 25.7289 26.125 25.7289C25.9592 25.7289 25.8003 25.6646 25.6831 25.55C25.5658 25.4355 25.5 25.2801 25.5 25.1181V20.2313C25.5 19.9073 25.3683 19.5966 25.1339 19.3675C24.8995 19.1384 24.5815 19.0096 24.25 19.0096ZM45.35 19.0096C45.1875 19.0096 45.025 19.1196 44.875 19.2051L40.5 21.7584V26.3398H35.5V28.7831H36.75L38 41H45.5L46.75 28.7831H48V26.3398H43V23.0901L46.125 21.2575C46.75 20.9155 46.9125 20.2313 46.55 19.6205C46.2875 19.1807 45.825 18.9486 45.35 19.0096Z" fill="white"/>
<path d="M69.04 34.36C69.1733 34.7867 69.4 35.12 69.72 35.36C70.04 35.6 70.38 35.72 70.74 35.72C70.74 35.96 70.7 36.1933 70.62 36.42C70.54 36.6467 70.4267 36.84 70.28 37H64.86C64.7133 36.84 64.6 36.6467 64.52 36.42C64.44 36.1933 64.4 35.96 64.4 35.72C65.16 35.72 65.54 35.4 65.54 34.76C65.54 34.4933 65.4933 34.18 65.4 33.82L65.28 33.4H60.8L60.68 33.82C60.56 34.2333 60.5 34.5267 60.5 34.7C60.5 35.38 60.9267 35.72 61.78 35.72C61.78 35.96 61.74 36.1933 61.66 36.42C61.58 36.6467 61.4667 36.84 61.32 37H56.86C56.7133 36.84 56.6 36.6467 56.52 36.42C56.44 36.1933 56.4 35.96 56.4 35.72C56.7733 35.72 57.1133 35.6133 57.42 35.4C57.7267 35.1733 57.9533 34.8467 58.1 34.42L61.38 24.74C60.8467 24.5667 60.1733 24.48 59.36 24.48C59.36 23.9067 59.52 23.4267 59.84 23.04H65.32L69.04 34.36ZM64.84 31.84L63.42 26.88C63.3 26.48 63.1467 26.14 62.96 25.86L61.24 31.84H64.84ZM86.9045 34.84C86.9045 35.4133 87.2312 35.76 87.8845 35.88V36.46C87.3779 36.9 86.5579 37.12 85.4245 37.12C84.8645 37.12 84.4245 37.0467 84.1045 36.9C83.7845 36.74 83.6245 36.4667 83.6245 36.08V29.42C83.6245 28.9933 83.5045 28.6667 83.2645 28.44C83.0379 28.2 82.7312 28.08 82.3445 28.08C81.8645 28.08 81.4512 28.24 81.1045 28.56C81.1179 28.6267 81.1245 28.7267 81.1245 28.86V34.84C81.1245 35.2267 81.2045 35.5067 81.3645 35.68C81.5245 35.84 81.7779 35.92 82.1245 35.92C82.1245 36.32 81.9645 36.68 81.6445 37H77.3845C77.0779 36.6667 76.9245 36.3067 76.9245 35.92C77.2579 35.92 77.4979 35.84 77.6445 35.68C77.7912 35.5067 77.8645 35.2267 77.8645 34.84V29.42C77.8645 29.0067 77.7445 28.68 77.5045 28.44C77.2645 28.2 76.9645 28.08 76.6045 28.08C76.3379 28.08 76.0712 28.1467 75.8045 28.28C75.5379 28.4 75.3179 28.5667 75.1445 28.78V34.84C75.1445 35.2267 75.2112 35.5067 75.3445 35.68C75.4912 35.84 75.7312 35.92 76.0645 35.92C76.0645 36.3333 75.9045 36.6933 75.5845 37H71.2445C70.9245 36.68 70.7645 36.32 70.7645 35.92C71.1645 35.92 71.4512 35.84 71.6245 35.68C71.7979 35.5067 71.8845 35.2267 71.8845 34.84V28.98C71.8845 28.62 71.7845 28.3667 71.5845 28.22C71.3845 28.06 71.0379 27.98 70.5445 27.98V27.1C70.9712 26.8467 71.5712 26.62 72.3445 26.42C73.1312 26.22 73.7245 26.12 74.1245 26.12C74.4179 26.12 74.6445 26.2133 74.8045 26.4C74.9779 26.5733 75.0912 26.9067 75.1445 27.4C75.4912 27 75.9312 26.6867 76.4645 26.46C76.9979 26.2333 77.5912 26.12 78.2445 26.12C79.5779 26.12 80.4445 26.5667 80.8445 27.46C81.1912 27.0333 81.6379 26.7067 82.1845 26.48C82.7445 26.24 83.3645 26.12 84.0445 26.12C84.9912 26.12 85.7045 26.3533 86.1845 26.82C86.6645 27.2867 86.9045 27.9667 86.9045 28.86V34.84ZM94.7719 26.2C95.5319 26.2 96.2319 26.3933 96.8719 26.78C97.5119 27.1533 98.0252 27.7267 98.4119 28.5C98.7985 29.2733 98.9919 30.22 98.9919 31.34C98.9919 32.58 98.7452 33.6467 98.2519 34.54C97.7719 35.42 97.1185 36.0867 96.2919 36.54C95.4652 36.9933 94.5452 37.22 93.5319 37.22C92.8785 37.22 92.1519 37.1533 91.3519 37.02C90.5652 36.9 89.9519 36.7333 89.5119 36.52V24.08C89.5119 23.4267 89.1052 23.1 88.2919 23.1V22.46C88.7319 22.1533 89.3052 21.8867 90.0119 21.66C90.7319 21.4333 91.3119 21.32 91.7519 21.32C92.0719 21.32 92.2985 21.3933 92.4319 21.54C92.5652 21.6733 92.6319 21.9067 92.6319 22.24V25.08L92.5719 26.98C93.0785 26.46 93.8119 26.2 94.7719 26.2ZM93.5919 35.76C94.1785 35.76 94.6519 35.4667 95.0119 34.88C95.3719 34.2933 95.5519 33.34 95.5519 32.02C95.5519 30.6333 95.3519 29.6 94.9519 28.92C94.5652 28.24 94.0452 27.9 93.3919 27.9C93.0985 27.9 92.8452 27.9733 92.6319 28.12V35.38C92.8852 35.6333 93.2052 35.76 93.5919 35.76ZM99.9986 34.18C99.9986 33.2867 100.292 32.58 100.879 32.06C101.465 31.54 102.332 31.28 103.479 31.28C103.879 31.28 104.285 31.32 104.699 31.4C105.125 31.48 105.472 31.5867 105.739 31.72V29.06C105.739 28.5267 105.605 28.1467 105.339 27.92C105.072 27.68 104.712 27.56 104.259 27.56C103.819 27.56 103.459 27.6667 103.179 27.88C103.432 27.96 103.619 28.1 103.739 28.3C103.872 28.4867 103.939 28.7 103.939 28.94C103.939 29.3667 103.785 29.7133 103.479 29.98C103.172 30.2467 102.785 30.38 102.319 30.38C101.812 30.38 101.405 30.2333 101.099 29.94C100.792 29.6467 100.639 29.2667 100.639 28.8C100.639 28.3333 100.799 27.8933 101.119 27.48C101.439 27.0667 101.925 26.7333 102.579 26.48C103.245 26.2267 104.065 26.1 105.039 26.1C106.359 26.1 107.359 26.3733 108.039 26.92C108.719 27.4533 109.059 28.24 109.059 29.28V34.58C109.059 35.22 109.365 35.6067 109.979 35.74V36.38C109.805 36.62 109.519 36.8067 109.119 36.94C108.719 37.0733 108.312 37.14 107.899 37.14C106.992 37.14 106.352 36.8267 105.979 36.2C105.672 36.4667 105.299 36.6933 104.859 36.88C104.419 37.0533 103.919 37.14 103.359 37.14C102.359 37.14 101.545 36.8667 100.919 36.32C100.305 35.76 99.9986 35.0467 99.9986 34.18ZM105.739 33.26C105.592 33.1667 105.412 33.0867 105.199 33.02C104.999 32.9533 104.805 32.92 104.619 32.92C104.245 32.92 103.939 33.04 103.699 33.28C103.459 33.5067 103.339 33.84 103.339 34.28C103.339 34.64 103.459 34.94 103.699 35.18C103.939 35.4067 104.259 35.52 104.659 35.52C104.859 35.52 105.052 35.4933 105.239 35.44C105.439 35.3733 105.605 35.2933 105.739 35.2V33.26ZM118.701 30.72C118.794 30.92 118.841 31.2933 118.841 31.84C118.841 32.24 118.801 32.5333 118.721 32.72H111.641C111.547 32.52 111.501 32.2267 111.501 31.84C111.501 31.2667 111.547 30.8933 111.641 30.72H118.701ZM126.847 29.4C127.22 29.4 127.487 29.28 127.647 29.04C127.807 28.7867 127.887 28.3867 127.887 27.84C128.194 27.84 128.507 27.88 128.827 27.96C129.147 28.04 129.407 28.1467 129.607 28.28V31.98C129.407 32.1133 129.147 32.22 128.827 32.3C128.507 32.38 128.194 32.42 127.887 32.42C127.887 31.8733 127.807 31.4867 127.647 31.26C127.5 31.02 127.24 30.9 126.867 30.9H125.207V34.46C125.207 34.8733 125.294 35.1733 125.467 35.36C125.654 35.5467 126.007 35.64 126.527 35.64H128.127C128.127 36.2667 128.007 36.72 127.767 37H121.027C120.88 36.84 120.767 36.6467 120.687 36.42C120.607 36.1933 120.567 35.96 120.567 35.72C121.1 35.72 121.46 35.6467 121.647 35.5C121.834 35.3533 121.927 35.0933 121.927 34.72V25.32C121.927 24.96 121.82 24.7067 121.607 24.56C121.407 24.4 121.087 24.32 120.647 24.32C120.647 23.8267 120.8 23.4067 121.107 23.06H128.747C129.267 22.8333 129.774 22.72 130.267 22.72C130.427 23.0267 130.574 23.52 130.707 24.2C130.854 24.8667 130.927 25.38 130.927 25.74C130.767 25.8867 130.514 26.04 130.167 26.2C129.82 26.3467 129.507 26.4467 129.227 26.5C129.067 25.9933 128.8 25.58 128.427 25.26C128.067 24.9267 127.58 24.76 126.967 24.76H125.207V29.4H126.847ZM136.696 37.26C135.229 37.26 134.056 36.8 133.176 35.88C132.296 34.9467 131.856 33.62 131.856 31.9C131.856 30.6733 132.063 29.6267 132.476 28.76C132.903 27.8933 133.496 27.24 134.256 26.8C135.016 26.36 135.896 26.14 136.896 26.14C137.856 26.14 138.696 26.3533 139.416 26.78C140.149 27.1933 140.716 27.8067 141.116 28.62C141.529 29.4333 141.736 30.42 141.736 31.58C141.736 32.7933 141.523 33.8267 141.096 34.68C140.683 35.5333 140.096 36.18 139.336 36.62C138.576 37.0467 137.696 37.26 136.696 37.26ZM136.856 35.82C137.323 35.82 137.669 35.5533 137.896 35.02C138.123 34.4867 138.236 33.5 138.236 32.06C138.236 30.8467 138.176 29.9133 138.056 29.26C137.936 28.6067 137.769 28.16 137.556 27.92C137.343 27.68 137.069 27.56 136.736 27.56C136.269 27.56 135.916 27.8267 135.676 28.36C135.449 28.8933 135.336 29.8933 135.336 31.36C135.336 32.56 135.396 33.4867 135.516 34.14C135.636 34.78 135.803 35.22 136.016 35.46C136.243 35.7 136.523 35.82 136.856 35.82ZM147.614 37.26C146.147 37.26 144.974 36.8 144.094 35.88C143.214 34.9467 142.774 33.62 142.774 31.9C142.774 30.6733 142.981 29.6267 143.394 28.76C143.821 27.8933 144.414 27.24 145.174 26.8C145.934 26.36 146.814 26.14 147.814 26.14C148.774 26.14 149.614 26.3533 150.334 26.78C151.067 27.1933 151.634 27.8067 152.034 28.62C152.447 29.4333 152.654 30.42 152.654 31.58C152.654 32.7933 152.441 33.8267 152.014 34.68C151.601 35.5333 151.014 36.18 150.254 36.62C149.494 37.0467 148.614 37.26 147.614 37.26ZM147.774 35.82C148.241 35.82 148.587 35.5533 148.814 35.02C149.041 34.4867 149.154 33.5 149.154 32.06C149.154 30.8467 149.094 29.9133 148.974 29.26C148.854 28.6067 148.687 28.16 148.474 27.92C148.261 27.68 147.987 27.56 147.654 27.56C147.187 27.56 146.834 27.8267 146.594 28.36C146.367 28.8933 146.254 29.8933 146.254 31.36C146.254 32.56 146.314 33.4867 146.434 34.14C146.554 34.78 146.721 35.22 146.934 35.46C147.161 35.7 147.441 35.82 147.774 35.82ZM164.292 36.5C164.105 36.74 163.825 36.9267 163.452 37.06C163.079 37.1933 162.679 37.26 162.252 37.26C161.865 37.26 161.485 37.1733 161.112 37C160.739 36.84 160.479 36.6133 160.332 36.32C160.065 36.6667 159.732 36.9067 159.332 37.04C158.945 37.1867 158.459 37.26 157.872 37.26C157.125 37.26 156.439 37.0733 155.812 36.7C155.185 36.3133 154.679 35.7467 154.292 35C153.919 34.24 153.732 33.3133 153.732 32.22C153.732 30.9267 153.972 29.8267 154.452 28.92C154.945 28.0133 155.592 27.3333 156.392 26.88C157.192 26.4267 158.072 26.2 159.032 26.2C159.259 26.2 159.665 26.2267 160.252 26.28L160.192 25.08V24.08C160.192 23.7467 160.099 23.5 159.912 23.34C159.725 23.18 159.372 23.1 158.852 23.1V22.28C159.319 22.0267 159.925 21.8 160.672 21.6C161.419 21.4 162.005 21.3 162.432 21.3C162.739 21.3 162.959 21.3733 163.092 21.52C163.239 21.6533 163.312 21.8867 163.312 22.22V34.78C163.312 35.4333 163.632 35.82 164.272 35.94L164.292 36.5ZM159.252 35.56C159.665 35.56 159.979 35.44 160.192 35.2V28.2C159.912 27.8133 159.539 27.62 159.072 27.62C158.485 27.62 158.012 27.9267 157.652 28.54C157.305 29.1533 157.132 30.1467 157.132 31.52C157.132 32.84 157.325 33.8467 157.712 34.54C158.112 35.22 158.625 35.56 159.252 35.56Z" fill="#AF9A2D"/>
</svg>
