<svg width="147" height="36" viewBox="0 0 147 36" fill="none" xmlns="http://www.w3.org/2000/svg">
<g clip-path="url(#clip0_1_2)">
<rect y="1" width="35" height="35" rx="10" fill="#AF9A2D"/>
<path d="M6.25 9.00964C5.91848 9.00964 5.60054 9.13836 5.36612 9.36747C5.1317 9.59658 5 9.90732 5 10.2313V16.9506C5 19.0153 6.2875 20.7745 8.125 21.4953V29.1675C8.125 29.6535 8.32254 30.1196 8.67417 30.4633C9.02581 30.8069 9.50272 31 10 31C10.4973 31 10.9742 30.8069 11.3258 30.4633C11.6775 30.1196 11.875 29.6535 11.875 29.1675V21.4953C13.7125 20.7745 15 19.0153 15 16.9506V10.2313C15 9.90732 14.8683 9.59658 14.6339 9.36747C14.3995 9.13836 14.0815 9.00964 13.75 9.00964C13.4185 9.00964 13.1005 9.13836 12.8661 9.36747C12.6317 9.59658 12.5 9.90732 12.5 10.2313V15.1181C12.5 15.2801 12.4342 15.4355 12.3169 15.55C12.1997 15.6646 12.0408 15.7289 11.875 15.7289C11.7092 15.7289 11.5503 15.6646 11.4331 15.55C11.3158 15.4355 11.25 15.2801 11.25 15.1181V10.2313C11.25 9.90732 11.1183 9.59658 10.8839 9.36747C10.6495 9.13836 10.3315 9.00964 10 9.00964C9.66848 9.00964 9.35054 9.13836 9.11612 9.36747C8.8817 9.59658 8.75 9.90732 8.75 10.2313V15.1181C8.75 15.2801 8.68415 15.4355 8.56694 15.55C8.44973 15.6646 8.29076 15.7289 8.125 15.7289C7.95924 15.7289 7.80027 15.6646 7.68306 15.55C7.56585 15.4355 7.5 15.2801 7.5 15.1181V10.2313C7.5 9.90732 7.3683 9.59658 7.13388 9.36747C6.89946 9.13836 6.58152 9.00964 6.25 9.00964ZM27.35 9.00964C27.1875 9.00964 27.025 9.1196 26.875 9.20511L22.5 11.7584V16.3398H17.5V18.7831H18.75L20 31H27.5L28.75 18.7831H30V16.3398H25V13.0901L28.125 11.2575C28.75 10.9155 28.9125 10.2313 28.55 9.62049C28.2875 9.18068 27.825 8.94856 27.35 9.00964Z" fill="white"/>
<path d="M51.04 24.36C51.1733 24.7867 51.4 25.12 51.72 25.36C52.04 25.6 52.38 25.72 52.74 25.72C52.74 25.96 52.7 26.1933 52.62 26.42C52.54 26.6467 52.4267 26.84 52.28 27H46.86C46.7133 26.84 46.6 26.6467 46.52 26.42C46.44 26.1933 46.4 25.96 46.4 25.72C47.16 25.72 47.54 25.4 47.54 24.76C47.54 24.4933 47.4933 24.18 47.4 23.82L47.28 23.4H42.8L42.68 23.82C42.56 24.2333 42.5 24.5267 42.5 24.7C42.5 25.38 42.9267 25.72 43.78 25.72C43.78 25.96 43.74 26.1933 43.66 26.42C43.58 26.6467 43.4667 26.84 43.32 27H38.86C38.7133 26.84 38.6 26.6467 38.52 26.42C38.44 26.1933 38.4 25.96 38.4 25.72C38.7733 25.72 39.1133 25.6133 39.42 25.4C39.7267 25.1733 39.9533 24.8467 40.1 24.42L43.38 14.74C42.8467 14.5667 42.1733 14.48 41.36 14.48C41.36 13.9067 41.52 13.4267 41.84 13.04H47.32L51.04 24.36ZM46.84 21.84L45.42 16.88C45.3 16.48 45.1467 16.14 44.96 15.86L43.24 21.84H46.84ZM68.9045 24.84C68.9045 25.4133 69.2312 25.76 69.8845 25.88V26.46C69.3779 26.9 68.5579 27.12 67.4245 27.12C66.8645 27.12 66.4245 27.0467 66.1045 26.9C65.7845 26.74 65.6245 26.4667 65.6245 26.08V19.42C65.6245 18.9933 65.5045 18.6667 65.2645 18.44C65.0379 18.2 64.7312 18.08 64.3445 18.08C63.8645 18.08 63.4512 18.24 63.1045 18.56C63.1179 18.6267 63.1245 18.7267 63.1245 18.86V24.84C63.1245 25.2267 63.2045 25.5067 63.3645 25.68C63.5245 25.84 63.7779 25.92 64.1245 25.92C64.1245 26.32 63.9645 26.68 63.6445 27H59.3845C59.0779 26.6667 58.9245 26.3067 58.9245 25.92C59.2579 25.92 59.4979 25.84 59.6445 25.68C59.7912 25.5067 59.8645 25.2267 59.8645 24.84V19.42C59.8645 19.0067 59.7445 18.68 59.5045 18.44C59.2645 18.2 58.9645 18.08 58.6045 18.08C58.3379 18.08 58.0712 18.1467 57.8045 18.28C57.5379 18.4 57.3179 18.5667 57.1445 18.78V24.84C57.1445 25.2267 57.2112 25.5067 57.3445 25.68C57.4912 25.84 57.7312 25.92 58.0645 25.92C58.0645 26.3333 57.9045 26.6933 57.5845 27H53.2445C52.9245 26.68 52.7645 26.32 52.7645 25.92C53.1645 25.92 53.4512 25.84 53.6245 25.68C53.7979 25.5067 53.8845 25.2267 53.8845 24.84V18.98C53.8845 18.62 53.7845 18.3667 53.5845 18.22C53.3845 18.06 53.0379 17.98 52.5445 17.98V17.1C52.9712 16.8467 53.5712 16.62 54.3445 16.42C55.1312 16.22 55.7245 16.12 56.1245 16.12C56.4179 16.12 56.6445 16.2133 56.8045 16.4C56.9779 16.5733 57.0912 16.9067 57.1445 17.4C57.4912 17 57.9312 16.6867 58.4645 16.46C58.9979 16.2333 59.5912 16.12 60.2445 16.12C61.5779 16.12 62.4445 16.5667 62.8445 17.46C63.1912 17.0333 63.6379 16.7067 64.1845 16.48C64.7445 16.24 65.3645 16.12 66.0445 16.12C66.9912 16.12 67.7045 16.3533 68.1845 16.82C68.6645 17.2867 68.9045 17.9667 68.9045 18.86V24.84ZM76.7719 16.2C77.5319 16.2 78.2319 16.3933 78.8719 16.78C79.5119 17.1533 80.0252 17.7267 80.4119 18.5C80.7985 19.2733 80.9919 20.22 80.9919 21.34C80.9919 22.58 80.7452 23.6467 80.2519 24.54C79.7719 25.42 79.1185 26.0867 78.2919 26.54C77.4652 26.9933 76.5452 27.22 75.5319 27.22C74.8785 27.22 74.1519 27.1533 73.3519 27.02C72.5652 26.9 71.9519 26.7333 71.5119 26.52V14.08C71.5119 13.4267 71.1052 13.1 70.2919 13.1V12.46C70.7319 12.1533 71.3052 11.8867 72.0119 11.66C72.7319 11.4333 73.3119 11.32 73.7519 11.32C74.0719 11.32 74.2985 11.3933 74.4319 11.54C74.5652 11.6733 74.6319 11.9067 74.6319 12.24V15.08L74.5719 16.98C75.0785 16.46 75.8119 16.2 76.7719 16.2ZM75.5919 25.76C76.1785 25.76 76.6519 25.4667 77.0119 24.88C77.3719 24.2933 77.5519 23.34 77.5519 22.02C77.5519 20.6333 77.3519 19.6 76.9519 18.92C76.5652 18.24 76.0452 17.9 75.3919 17.9C75.0985 17.9 74.8452 17.9733 74.6319 18.12V25.38C74.8852 25.6333 75.2052 25.76 75.5919 25.76ZM81.9986 24.18C81.9986 23.2867 82.2919 22.58 82.8786 22.06C83.4653 21.54 84.3319 21.28 85.4786 21.28C85.8786 21.28 86.2853 21.32 86.6986 21.4C87.1253 21.48 87.4719 21.5867 87.7386 21.72V19.06C87.7386 18.5267 87.6053 18.1467 87.3386 17.92C87.0719 17.68 86.7119 17.56 86.2586 17.56C85.8186 17.56 85.4586 17.6667 85.1786 17.88C85.4319 17.96 85.6186 18.1 85.7386 18.3C85.8719 18.4867 85.9386 18.7 85.9386 18.94C85.9386 19.3667 85.7853 19.7133 85.4786 19.98C85.1719 20.2467 84.7853 20.38 84.3186 20.38C83.8119 20.38 83.4053 20.2333 83.0986 19.94C82.7919 19.6467 82.6386 19.2667 82.6386 18.8C82.6386 18.3333 82.7986 17.8933 83.1186 17.48C83.4386 17.0667 83.9253 16.7333 84.5786 16.48C85.2453 16.2267 86.0653 16.1 87.0386 16.1C88.3586 16.1 89.3586 16.3733 90.0386 16.92C90.7186 17.4533 91.0586 18.24 91.0586 19.28V24.58C91.0586 25.22 91.3653 25.6067 91.9786 25.74V26.38C91.8053 26.62 91.5186 26.8067 91.1186 26.94C90.7186 27.0733 90.3119 27.14 89.8986 27.14C88.9919 27.14 88.3519 26.8267 87.9786 26.2C87.6719 26.4667 87.2986 26.6933 86.8586 26.88C86.4186 27.0533 85.9186 27.14 85.3586 27.14C84.3586 27.14 83.5453 26.8667 82.9186 26.32C82.3053 25.76 81.9986 25.0467 81.9986 24.18ZM87.7386 23.26C87.5919 23.1667 87.4119 23.0867 87.1986 23.02C86.9986 22.9533 86.8053 22.92 86.6186 22.92C86.2453 22.92 85.9386 23.04 85.6986 23.28C85.4586 23.5067 85.3386 23.84 85.3386 24.28C85.3386 24.64 85.4586 24.94 85.6986 25.18C85.9386 25.4067 86.2586 25.52 86.6586 25.52C86.8586 25.52 87.0519 25.4933 87.2386 25.44C87.4386 25.3733 87.6053 25.2933 87.7386 25.2V23.26ZM100.701 20.72C100.794 20.92 100.841 21.2933 100.841 21.84C100.841 22.24 100.801 22.5333 100.721 22.72H93.6408C93.5474 22.52 93.5008 22.2267 93.5008 21.84C93.5008 21.2667 93.5474 20.8933 93.6408 20.72H100.701ZM108.847 19.4C109.22 19.4 109.487 19.28 109.647 19.04C109.807 18.7867 109.887 18.3867 109.887 17.84C110.194 17.84 110.507 17.88 110.827 17.96C111.147 18.04 111.407 18.1467 111.607 18.28V21.98C111.407 22.1133 111.147 22.22 110.827 22.3C110.507 22.38 110.194 22.42 109.887 22.42C109.887 21.8733 109.807 21.4867 109.647 21.26C109.5 21.02 109.24 20.9 108.867 20.9H107.207V24.46C107.207 24.8733 107.294 25.1733 107.467 25.36C107.654 25.5467 108.007 25.64 108.527 25.64H110.127C110.127 26.2667 110.007 26.72 109.767 27H103.027C102.88 26.84 102.767 26.6467 102.687 26.42C102.607 26.1933 102.567 25.96 102.567 25.72C103.1 25.72 103.46 25.6467 103.647 25.5C103.834 25.3533 103.927 25.0933 103.927 24.72V15.32C103.927 14.96 103.82 14.7067 103.607 14.56C103.407 14.4 103.087 14.32 102.647 14.32C102.647 13.8267 102.8 13.4067 103.107 13.06H110.747C111.267 12.8333 111.774 12.72 112.267 12.72C112.427 13.0267 112.574 13.52 112.707 14.2C112.854 14.8667 112.927 15.38 112.927 15.74C112.767 15.8867 112.514 16.04 112.167 16.2C111.82 16.3467 111.507 16.4467 111.227 16.5C111.067 15.9933 110.8 15.58 110.427 15.26C110.067 14.9267 109.58 14.76 108.967 14.76H107.207V19.4H108.847ZM118.696 27.26C117.229 27.26 116.056 26.8 115.176 25.88C114.296 24.9467 113.856 23.62 113.856 21.9C113.856 20.6733 114.063 19.6267 114.476 18.76C114.903 17.8933 115.496 17.24 116.256 16.8C117.016 16.36 117.896 16.14 118.896 16.14C119.856 16.14 120.696 16.3533 121.416 16.78C122.149 17.1933 122.716 17.8067 123.116 18.62C123.529 19.4333 123.736 20.42 123.736 21.58C123.736 22.7933 123.523 23.8267 123.096 24.68C122.683 25.5333 122.096 26.18 121.336 26.62C120.576 27.0467 119.696 27.26 118.696 27.26ZM118.856 25.82C119.323 25.82 119.669 25.5533 119.896 25.02C120.123 24.4867 120.236 23.5 120.236 22.06C120.236 20.8467 120.176 19.9133 120.056 19.26C119.936 18.6067 119.769 18.16 119.556 17.92C119.343 17.68 119.069 17.56 118.736 17.56C118.269 17.56 117.916 17.8267 117.676 18.36C117.449 18.8933 117.336 19.8933 117.336 21.36C117.336 22.56 117.396 23.4867 117.516 24.14C117.636 24.78 117.803 25.22 118.016 25.46C118.243 25.7 118.523 25.82 118.856 25.82ZM129.614 27.26C128.147 27.26 126.974 26.8 126.094 25.88C125.214 24.9467 124.774 23.62 124.774 21.9C124.774 20.6733 124.981 19.6267 125.394 18.76C125.821 17.8933 126.414 17.24 127.174 16.8C127.934 16.36 128.814 16.14 129.814 16.14C130.774 16.14 131.614 16.3533 132.334 16.78C133.067 17.1933 133.634 17.8067 134.034 18.62C134.447 19.4333 134.654 20.42 134.654 21.58C134.654 22.7933 134.441 23.8267 134.014 24.68C133.601 25.5333 133.014 26.18 132.254 26.62C131.494 27.0467 130.614 27.26 129.614 27.26ZM129.774 25.82C130.241 25.82 130.587 25.5533 130.814 25.02C131.041 24.4867 131.154 23.5 131.154 22.06C131.154 20.8467 131.094 19.9133 130.974 19.26C130.854 18.6067 130.687 18.16 130.474 17.92C130.261 17.68 129.987 17.56 129.654 17.56C129.187 17.56 128.834 17.8267 128.594 18.36C128.367 18.8933 128.254 19.8933 128.254 21.36C128.254 22.56 128.314 23.4867 128.434 24.14C128.554 24.78 128.721 25.22 128.934 25.46C129.161 25.7 129.441 25.82 129.774 25.82ZM146.292 26.5C146.105 26.74 145.825 26.9267 145.452 27.06C145.079 27.1933 144.679 27.26 144.252 27.26C143.865 27.26 143.485 27.1733 143.112 27C142.739 26.84 142.479 26.6133 142.332 26.32C142.065 26.6667 141.732 26.9067 141.332 27.04C140.945 27.1867 140.459 27.26 139.872 27.26C139.125 27.26 138.439 27.0733 137.812 26.7C137.185 26.3133 136.679 25.7467 136.292 25C135.919 24.24 135.732 23.3133 135.732 22.22C135.732 20.9267 135.972 19.8267 136.452 18.92C136.945 18.0133 137.592 17.3333 138.392 16.88C139.192 16.4267 140.072 16.2 141.032 16.2C141.259 16.2 141.665 16.2267 142.252 16.28L142.192 15.08V14.08C142.192 13.7467 142.099 13.5 141.912 13.34C141.725 13.18 141.372 13.1 140.852 13.1V12.28C141.319 12.0267 141.925 11.8 142.672 11.6C143.419 11.4 144.005 11.3 144.432 11.3C144.739 11.3 144.959 11.3733 145.092 11.52C145.239 11.6533 145.312 11.8867 145.312 12.22V24.78C145.312 25.4333 145.632 25.82 146.272 25.94L146.292 26.5ZM141.252 25.56C141.665 25.56 141.979 25.44 142.192 25.2V18.2C141.912 17.8133 141.539 17.62 141.072 17.62C140.485 17.62 140.012 17.9267 139.652 18.54C139.305 19.1533 139.132 20.1467 139.132 21.52C139.132 22.84 139.325 23.8467 139.712 24.54C140.112 25.22 140.625 25.56 141.252 25.56Z" fill="#AF9A2D"/>
</g>
<defs>
<clipPath id="clip0_1_2">
<rect width="147" height="36" fill="white"/>
</clipPath>
</defs>
</svg>
